<mxfile host="app.diagrams.net" modified="2020-11-12T08:32:40.209Z" agent="5.0 (Windows NT 10.0; Win64; x64) AppleWebKit/537.36 (KHTML, like Gecko) Chrome/86.0.4240.183 Safari/537.36" etag="0GaWKn7uXnFQYN7EldgJ" version="13.9.6" type="github">
  <diagram id="ow28NsneOe8BZYSyqIUP" name="Page-1">
    <mxGraphModel dx="1869" dy="1619" grid="1" gridSize="10" guides="1" tooltips="1" connect="1" arrows="1" fold="1" page="1" pageScale="1" pageWidth="850" pageHeight="1100" math="0" shadow="0">
      <root>
        <mxCell id="0" />
        <mxCell id="1" parent="0" />
        <mxCell id="11v0PXnvtIZo2CiEv95M-6" value="Yêu cầu khám bệnh" style="edgeStyle=orthogonalEdgeStyle;rounded=0;orthogonalLoop=1;jettySize=auto;html=1;exitX=1;exitY=0.5;exitDx=0;exitDy=0;entryX=0;entryY=0.5;entryDx=0;entryDy=0;" edge="1" parent="1" source="11v0PXnvtIZo2CiEv95M-1" target="11v0PXnvtIZo2CiEv95M-2">
          <mxGeometry relative="1" as="geometry" />
        </mxCell>
        <mxCell id="11v0PXnvtIZo2CiEv95M-1" value="Bệnh nhân" style="rounded=0;whiteSpace=wrap;html=1;" vertex="1" parent="1">
          <mxGeometry y="85" width="110" height="40" as="geometry" />
        </mxCell>
        <mxCell id="11v0PXnvtIZo2CiEv95M-7" value="Kết quả khám&amp;nbsp;" style="edgeStyle=orthogonalEdgeStyle;rounded=0;orthogonalLoop=1;jettySize=auto;html=1;exitX=1;exitY=0.5;exitDx=0;exitDy=0;entryX=0;entryY=0.5;entryDx=0;entryDy=0;" edge="1" parent="1" source="11v0PXnvtIZo2CiEv95M-2" target="11v0PXnvtIZo2CiEv95M-3">
          <mxGeometry relative="1" as="geometry" />
        </mxCell>
        <mxCell id="11v0PXnvtIZo2CiEv95M-2" value="Khám Bệnh" style="ellipse;whiteSpace=wrap;html=1;" vertex="1" parent="1">
          <mxGeometry x="260" y="60" width="130" height="90" as="geometry" />
        </mxCell>
        <mxCell id="11v0PXnvtIZo2CiEv95M-9" value="Cập nhật hồ sơ bệnh nhân" style="edgeStyle=orthogonalEdgeStyle;rounded=0;orthogonalLoop=1;jettySize=auto;html=1;" edge="1" parent="1" source="11v0PXnvtIZo2CiEv95M-3" target="11v0PXnvtIZo2CiEv95M-8">
          <mxGeometry x="0.1877" y="8" relative="1" as="geometry">
            <Array as="points">
              <mxPoint x="600" y="28" />
            </Array>
            <mxPoint as="offset" />
          </mxGeometry>
        </mxCell>
        <mxCell id="11v0PXnvtIZo2CiEv95M-15" value="Thông báo chuyển tiếp bệnh nhân" style="edgeStyle=orthogonalEdgeStyle;rounded=0;orthogonalLoop=1;jettySize=auto;html=1;" edge="1" parent="1" source="11v0PXnvtIZo2CiEv95M-3" target="11v0PXnvtIZo2CiEv95M-5">
          <mxGeometry x="0.1724" y="90" relative="1" as="geometry">
            <mxPoint as="offset" />
          </mxGeometry>
        </mxCell>
        <mxCell id="11v0PXnvtIZo2CiEv95M-44" value="Hóa đơn thanh toán" style="edgeStyle=orthogonalEdgeStyle;rounded=0;orthogonalLoop=1;jettySize=auto;html=1;entryX=0;entryY=0.75;entryDx=0;entryDy=0;" edge="1" parent="1" source="11v0PXnvtIZo2CiEv95M-3" target="11v0PXnvtIZo2CiEv95M-11">
          <mxGeometry x="0.1377" relative="1" as="geometry">
            <Array as="points">
              <mxPoint x="580" y="190" />
            </Array>
            <mxPoint as="offset" />
          </mxGeometry>
        </mxCell>
        <mxCell id="11v0PXnvtIZo2CiEv95M-46" style="edgeStyle=orthogonalEdgeStyle;rounded=0;orthogonalLoop=1;jettySize=auto;html=1;entryX=1;entryY=0.5;entryDx=0;entryDy=0;" edge="1" parent="1" source="11v0PXnvtIZo2CiEv95M-3" target="11v0PXnvtIZo2CiEv95M-45">
          <mxGeometry relative="1" as="geometry" />
        </mxCell>
        <mxCell id="11v0PXnvtIZo2CiEv95M-48" value="Hóa đơn khám bệnh" style="edgeLabel;html=1;align=center;verticalAlign=middle;resizable=0;points=[];" vertex="1" connectable="0" parent="11v0PXnvtIZo2CiEv95M-46">
          <mxGeometry x="0.049" y="-2" relative="1" as="geometry">
            <mxPoint x="18" y="-18" as="offset" />
          </mxGeometry>
        </mxCell>
        <mxCell id="11v0PXnvtIZo2CiEv95M-49" style="edgeStyle=orthogonalEdgeStyle;rounded=0;orthogonalLoop=1;jettySize=auto;html=1;exitX=0;exitY=1;exitDx=0;exitDy=0;entryX=1;entryY=0;entryDx=0;entryDy=0;" edge="1" parent="1" source="11v0PXnvtIZo2CiEv95M-3" target="11v0PXnvtIZo2CiEv95M-4">
          <mxGeometry relative="1" as="geometry">
            <Array as="points">
              <mxPoint x="540" y="133" />
              <mxPoint x="540" y="200" />
              <mxPoint x="322" y="200" />
            </Array>
          </mxGeometry>
        </mxCell>
        <mxCell id="11v0PXnvtIZo2CiEv95M-52" value="Phiếu thu" style="edgeLabel;html=1;align=center;verticalAlign=middle;resizable=0;points=[];" vertex="1" connectable="0" parent="11v0PXnvtIZo2CiEv95M-49">
          <mxGeometry x="0.0464" y="1" relative="1" as="geometry">
            <mxPoint as="offset" />
          </mxGeometry>
        </mxCell>
        <mxCell id="11v0PXnvtIZo2CiEv95M-50" style="edgeStyle=orthogonalEdgeStyle;rounded=0;orthogonalLoop=1;jettySize=auto;html=1;exitX=0;exitY=1;exitDx=0;exitDy=0;entryX=0.79;entryY=0.059;entryDx=0;entryDy=0;entryPerimeter=0;" edge="1" parent="1" source="11v0PXnvtIZo2CiEv95M-3" target="11v0PXnvtIZo2CiEv95M-4">
          <mxGeometry relative="1" as="geometry">
            <Array as="points">
              <mxPoint x="528" y="190" />
              <mxPoint x="315" y="190" />
            </Array>
          </mxGeometry>
        </mxCell>
        <mxCell id="11v0PXnvtIZo2CiEv95M-51" value="Hóa đơn khám bệnh" style="edgeLabel;html=1;align=center;verticalAlign=middle;resizable=0;points=[];" vertex="1" connectable="0" parent="11v0PXnvtIZo2CiEv95M-50">
          <mxGeometry x="0.0291" y="-1" relative="1" as="geometry">
            <mxPoint as="offset" />
          </mxGeometry>
        </mxCell>
        <mxCell id="11v0PXnvtIZo2CiEv95M-3" value="Tiếp Đón" style="ellipse;whiteSpace=wrap;html=1;" vertex="1" parent="1">
          <mxGeometry x="510" y="65" width="120" height="80" as="geometry" />
        </mxCell>
        <mxCell id="11v0PXnvtIZo2CiEv95M-35" style="edgeStyle=orthogonalEdgeStyle;rounded=0;orthogonalLoop=1;jettySize=auto;html=1;entryX=1;entryY=0.75;entryDx=0;entryDy=0;" edge="1" parent="1" source="11v0PXnvtIZo2CiEv95M-4" target="11v0PXnvtIZo2CiEv95M-32">
          <mxGeometry relative="1" as="geometry">
            <Array as="points">
              <mxPoint x="330" y="413" />
            </Array>
          </mxGeometry>
        </mxCell>
        <mxCell id="11v0PXnvtIZo2CiEv95M-37" style="edgeStyle=orthogonalEdgeStyle;rounded=0;orthogonalLoop=1;jettySize=auto;html=1;exitX=1;exitY=1;exitDx=0;exitDy=0;entryX=1;entryY=0.75;entryDx=0;entryDy=0;" edge="1" parent="1" source="11v0PXnvtIZo2CiEv95M-4" target="11v0PXnvtIZo2CiEv95M-33">
          <mxGeometry relative="1" as="geometry">
            <Array as="points">
              <mxPoint x="330" y="348" />
              <mxPoint x="330" y="473" />
            </Array>
          </mxGeometry>
        </mxCell>
        <mxCell id="11v0PXnvtIZo2CiEv95M-41" style="edgeStyle=orthogonalEdgeStyle;rounded=0;orthogonalLoop=1;jettySize=auto;html=1;entryX=0.396;entryY=1.071;entryDx=0;entryDy=0;entryPerimeter=0;" edge="1" parent="1" source="11v0PXnvtIZo2CiEv95M-4" target="11v0PXnvtIZo2CiEv95M-39">
          <mxGeometry relative="1" as="geometry">
            <Array as="points">
              <mxPoint x="43" y="290" />
            </Array>
          </mxGeometry>
        </mxCell>
        <mxCell id="11v0PXnvtIZo2CiEv95M-42" value="Các loại báo cáo" style="edgeLabel;html=1;align=center;verticalAlign=middle;resizable=0;points=[];" vertex="1" connectable="0" parent="11v0PXnvtIZo2CiEv95M-41">
          <mxGeometry x="0.3667" y="1" relative="1" as="geometry">
            <mxPoint as="offset" />
          </mxGeometry>
        </mxCell>
        <mxCell id="11v0PXnvtIZo2CiEv95M-4" value="Tài chính kế toán" style="ellipse;whiteSpace=wrap;html=1;" vertex="1" parent="1">
          <mxGeometry x="220" y="280" width="120" height="80" as="geometry" />
        </mxCell>
        <mxCell id="11v0PXnvtIZo2CiEv95M-17" value="Cập nhật hồ sơ bệnh án" style="edgeStyle=orthogonalEdgeStyle;rounded=0;orthogonalLoop=1;jettySize=auto;html=1;entryX=0.401;entryY=-0.011;entryDx=0;entryDy=0;entryPerimeter=0;" edge="1" parent="1" source="11v0PXnvtIZo2CiEv95M-5" target="11v0PXnvtIZo2CiEv95M-16">
          <mxGeometry x="-0.2319" y="10" relative="1" as="geometry">
            <Array as="points">
              <mxPoint x="778" y="300" />
            </Array>
            <mxPoint as="offset" />
          </mxGeometry>
        </mxCell>
        <mxCell id="11v0PXnvtIZo2CiEv95M-22" style="edgeStyle=orthogonalEdgeStyle;rounded=0;orthogonalLoop=1;jettySize=auto;html=1;entryX=0;entryY=0.5;entryDx=0;entryDy=0;" edge="1" parent="1" source="11v0PXnvtIZo2CiEv95M-5" target="11v0PXnvtIZo2CiEv95M-21">
          <mxGeometry relative="1" as="geometry">
            <Array as="points">
              <mxPoint x="570" y="440" />
              <mxPoint x="720" y="440" />
            </Array>
          </mxGeometry>
        </mxCell>
        <mxCell id="11v0PXnvtIZo2CiEv95M-23" value="Giấy xuất viện" style="edgeLabel;html=1;align=center;verticalAlign=middle;resizable=0;points=[];" vertex="1" connectable="0" parent="11v0PXnvtIZo2CiEv95M-22">
          <mxGeometry x="0.1531" y="-2" relative="1" as="geometry">
            <mxPoint x="14" y="-2" as="offset" />
          </mxGeometry>
        </mxCell>
        <mxCell id="11v0PXnvtIZo2CiEv95M-25" value="Hóa đơn điều trị" style="edgeStyle=orthogonalEdgeStyle;rounded=0;orthogonalLoop=1;jettySize=auto;html=1;" edge="1" parent="1" source="11v0PXnvtIZo2CiEv95M-5" target="11v0PXnvtIZo2CiEv95M-4">
          <mxGeometry relative="1" as="geometry">
            <Array as="points">
              <mxPoint x="480" y="300" />
              <mxPoint x="480" y="300" />
            </Array>
          </mxGeometry>
        </mxCell>
        <mxCell id="11v0PXnvtIZo2CiEv95M-27" value="Hóa đơn điều trị" style="edgeStyle=orthogonalEdgeStyle;rounded=0;orthogonalLoop=1;jettySize=auto;html=1;" edge="1" parent="1" source="11v0PXnvtIZo2CiEv95M-5" target="11v0PXnvtIZo2CiEv95M-26">
          <mxGeometry x="0.2419" y="10" relative="1" as="geometry">
            <Array as="points">
              <mxPoint x="490" y="340" />
            </Array>
            <mxPoint as="offset" />
          </mxGeometry>
        </mxCell>
        <mxCell id="11v0PXnvtIZo2CiEv95M-30" value="Phiếu thu" style="edgeStyle=orthogonalEdgeStyle;rounded=0;orthogonalLoop=1;jettySize=auto;html=1;" edge="1" parent="1" source="11v0PXnvtIZo2CiEv95M-5" target="11v0PXnvtIZo2CiEv95M-4">
          <mxGeometry relative="1" as="geometry">
            <Array as="points">
              <mxPoint x="450" y="320" />
              <mxPoint x="450" y="320" />
            </Array>
          </mxGeometry>
        </mxCell>
        <mxCell id="11v0PXnvtIZo2CiEv95M-31" value="Hóa đơn thanh toán" style="edgeStyle=orthogonalEdgeStyle;rounded=0;orthogonalLoop=1;jettySize=auto;html=1;exitX=0.5;exitY=1;exitDx=0;exitDy=0;entryX=0;entryY=0.25;entryDx=0;entryDy=0;" edge="1" parent="1" source="11v0PXnvtIZo2CiEv95M-5" target="11v0PXnvtIZo2CiEv95M-21">
          <mxGeometry x="0.4217" y="8" relative="1" as="geometry">
            <Array as="points">
              <mxPoint x="580" y="370" />
              <mxPoint x="580" y="428" />
            </Array>
            <mxPoint y="1" as="offset" />
          </mxGeometry>
        </mxCell>
        <mxCell id="11v0PXnvtIZo2CiEv95M-5" value="Điều Trị" style="ellipse;whiteSpace=wrap;html=1;" vertex="1" parent="1">
          <mxGeometry x="510" y="290" width="120" height="80" as="geometry" />
        </mxCell>
        <mxCell id="11v0PXnvtIZo2CiEv95M-10" value="Tra cứu" style="edgeStyle=orthogonalEdgeStyle;rounded=0;orthogonalLoop=1;jettySize=auto;html=1;entryX=1;entryY=0.5;entryDx=0;entryDy=0;" edge="1" parent="1" source="11v0PXnvtIZo2CiEv95M-8" target="11v0PXnvtIZo2CiEv95M-3">
          <mxGeometry x="0.2727" relative="1" as="geometry">
            <Array as="points">
              <mxPoint x="790" y="105" />
            </Array>
            <mxPoint as="offset" />
          </mxGeometry>
        </mxCell>
        <mxCell id="11v0PXnvtIZo2CiEv95M-8" value="Hồ sơ bệnh nhân" style="shape=partialRectangle;whiteSpace=wrap;html=1;left=0;right=0;fillColor=none;" vertex="1" parent="1">
          <mxGeometry x="730" y="10" width="120" height="35" as="geometry" />
        </mxCell>
        <mxCell id="11v0PXnvtIZo2CiEv95M-13" style="edgeStyle=orthogonalEdgeStyle;rounded=0;orthogonalLoop=1;jettySize=auto;html=1;entryX=1;entryY=1;entryDx=0;entryDy=0;" edge="1" parent="1" source="11v0PXnvtIZo2CiEv95M-11" target="11v0PXnvtIZo2CiEv95M-3">
          <mxGeometry relative="1" as="geometry">
            <Array as="points">
              <mxPoint x="612" y="170" />
            </Array>
          </mxGeometry>
        </mxCell>
        <mxCell id="11v0PXnvtIZo2CiEv95M-14" value="Thông tin cá nhân" style="edgeLabel;html=1;align=center;verticalAlign=middle;resizable=0;points=[];" vertex="1" connectable="0" parent="11v0PXnvtIZo2CiEv95M-13">
          <mxGeometry x="0.0141" relative="1" as="geometry">
            <mxPoint x="13" y="-10" as="offset" />
          </mxGeometry>
        </mxCell>
        <mxCell id="11v0PXnvtIZo2CiEv95M-11" value="Bệnh nhân" style="rounded=0;whiteSpace=wrap;html=1;" vertex="1" parent="1">
          <mxGeometry x="720" y="160" width="130" height="40" as="geometry" />
        </mxCell>
        <mxCell id="11v0PXnvtIZo2CiEv95M-19" style="edgeStyle=orthogonalEdgeStyle;rounded=0;orthogonalLoop=1;jettySize=auto;html=1;entryX=0.994;entryY=0.697;entryDx=0;entryDy=0;entryPerimeter=0;" edge="1" parent="1" source="11v0PXnvtIZo2CiEv95M-16" target="11v0PXnvtIZo2CiEv95M-5">
          <mxGeometry relative="1" as="geometry">
            <Array as="points">
              <mxPoint x="790" y="360" />
              <mxPoint x="629" y="360" />
            </Array>
          </mxGeometry>
        </mxCell>
        <mxCell id="11v0PXnvtIZo2CiEv95M-20" value="Hồ sơ bệnh án" style="edgeLabel;html=1;align=center;verticalAlign=middle;resizable=0;points=[];" vertex="1" connectable="0" parent="11v0PXnvtIZo2CiEv95M-19">
          <mxGeometry x="0.6227" y="-2" relative="1" as="geometry">
            <mxPoint x="49" as="offset" />
          </mxGeometry>
        </mxCell>
        <mxCell id="11v0PXnvtIZo2CiEv95M-16" value="Hồ sơ bệnh án" style="shape=partialRectangle;whiteSpace=wrap;html=1;left=0;right=0;fillColor=none;" vertex="1" parent="1">
          <mxGeometry x="730" y="315" width="120" height="30" as="geometry" />
        </mxCell>
        <mxCell id="11v0PXnvtIZo2CiEv95M-21" value="Bệnh nhân" style="rounded=0;whiteSpace=wrap;html=1;" vertex="1" parent="1">
          <mxGeometry x="720" y="420" width="120" height="30" as="geometry" />
        </mxCell>
        <mxCell id="11v0PXnvtIZo2CiEv95M-28" value="Phiếu thu" style="edgeStyle=orthogonalEdgeStyle;rounded=0;orthogonalLoop=1;jettySize=auto;html=1;exitX=0.75;exitY=0;exitDx=0;exitDy=0;entryX=0.29;entryY=0.961;entryDx=0;entryDy=0;entryPerimeter=0;" edge="1" parent="1" source="11v0PXnvtIZo2CiEv95M-26" target="11v0PXnvtIZo2CiEv95M-5">
          <mxGeometry relative="1" as="geometry">
            <Array as="points">
              <mxPoint x="520" y="420" />
              <mxPoint x="520" y="367" />
            </Array>
          </mxGeometry>
        </mxCell>
        <mxCell id="11v0PXnvtIZo2CiEv95M-26" value="Bộ phận thanh toán" style="rounded=0;whiteSpace=wrap;html=1;" vertex="1" parent="1">
          <mxGeometry x="400" y="420" width="120" height="40" as="geometry" />
        </mxCell>
        <mxCell id="11v0PXnvtIZo2CiEv95M-34" style="edgeStyle=orthogonalEdgeStyle;rounded=0;orthogonalLoop=1;jettySize=auto;html=1;entryX=0;entryY=0.5;entryDx=0;entryDy=0;" edge="1" parent="1" source="11v0PXnvtIZo2CiEv95M-32" target="11v0PXnvtIZo2CiEv95M-4">
          <mxGeometry relative="1" as="geometry">
            <Array as="points">
              <mxPoint x="200" y="405" />
              <mxPoint x="200" y="320" />
            </Array>
          </mxGeometry>
        </mxCell>
        <mxCell id="11v0PXnvtIZo2CiEv95M-32" value="Hóa đơn" style="shape=partialRectangle;whiteSpace=wrap;html=1;left=0;right=0;fillColor=none;" vertex="1" parent="1">
          <mxGeometry x="180" y="390" width="120" height="30" as="geometry" />
        </mxCell>
        <mxCell id="11v0PXnvtIZo2CiEv95M-38" style="edgeStyle=orthogonalEdgeStyle;rounded=0;orthogonalLoop=1;jettySize=auto;html=1;entryX=0.04;entryY=0.309;entryDx=0;entryDy=0;entryPerimeter=0;" edge="1" parent="1" source="11v0PXnvtIZo2CiEv95M-33" target="11v0PXnvtIZo2CiEv95M-4">
          <mxGeometry relative="1" as="geometry">
            <Array as="points">
              <mxPoint x="160" y="465" />
              <mxPoint x="160" y="305" />
            </Array>
          </mxGeometry>
        </mxCell>
        <mxCell id="11v0PXnvtIZo2CiEv95M-33" value="Phiếu thu" style="shape=partialRectangle;whiteSpace=wrap;html=1;left=0;right=0;fillColor=none;" vertex="1" parent="1">
          <mxGeometry x="180" y="450" width="120" height="30" as="geometry" />
        </mxCell>
        <mxCell id="11v0PXnvtIZo2CiEv95M-40" value="Yêu cầu báo cáo" style="edgeStyle=orthogonalEdgeStyle;rounded=0;orthogonalLoop=1;jettySize=auto;html=1;entryX=0.595;entryY=0.017;entryDx=0;entryDy=0;entryPerimeter=0;" edge="1" parent="1" source="11v0PXnvtIZo2CiEv95M-39" target="11v0PXnvtIZo2CiEv95M-4">
          <mxGeometry x="-0.013" relative="1" as="geometry">
            <mxPoint as="offset" />
          </mxGeometry>
        </mxCell>
        <mxCell id="11v0PXnvtIZo2CiEv95M-39" value="Bang giám đốc" style="rounded=0;whiteSpace=wrap;html=1;" vertex="1" parent="1">
          <mxGeometry x="-5" y="220" width="120" height="50" as="geometry" />
        </mxCell>
        <mxCell id="11v0PXnvtIZo2CiEv95M-47" value="Phiếu thu" style="edgeStyle=orthogonalEdgeStyle;rounded=0;orthogonalLoop=1;jettySize=auto;html=1;exitX=1;exitY=1;exitDx=0;exitDy=0;entryX=0.244;entryY=0.065;entryDx=0;entryDy=0;entryPerimeter=0;" edge="1" parent="1" source="11v0PXnvtIZo2CiEv95M-45" target="11v0PXnvtIZo2CiEv95M-3">
          <mxGeometry relative="1" as="geometry">
            <Array as="points">
              <mxPoint x="539" y="-30" />
            </Array>
          </mxGeometry>
        </mxCell>
        <mxCell id="11v0PXnvtIZo2CiEv95M-45" value="Bộ phận thanh toán" style="rounded=0;whiteSpace=wrap;html=1;" vertex="1" parent="1">
          <mxGeometry x="390" y="-60" width="120" height="40" as="geometry" />
        </mxCell>
      </root>
    </mxGraphModel>
  </diagram>
</mxfile>
